PathFileType	4	(X/Y/Z)	C:\Users\willi\Documents\UniDataLokal\DATA_Hans_PhD\TD06\B\3DGAIT_B_W12\marker_experimental.trc
DataRate	CameraRate	NumFrames	NumMarkers	Units	OrigDataRate	OrigDataStartFrame	OrigNumFrames
100.000000	100.000000	4	86	mm	100.000000	86	99
Frame#	Time	RBAK			C7			CLAV			T10			STRN			RASI			RPSI			LPSI			LASI			LPELV			RPELV			RTHI1			RTHI2			RTHI3			RTHI			RKNE			RPAT			RLKNEL			RLKNEM			RLPAT			RTIB1			RTIB2			RTIB3			RTIB			RANK			RHEEL			RTOE			RM5			LTHI1			LTHI2			LTHI3			LTHI			LKNE			LPAT			LLKNE			LLKNEM			LLPAT			LTIB1			LTIB2			LTIB3			LTIB			LANK			LHEEL			LTOE			LM5			*45			*46			*47			*48			*49			*50			*51			*52			*53			*54			*55			*56			*57			*58			*59			*60			*61			*62			*63			*64			*65			*66			*67			*68			*69			*70			*71			*72			*73			*74			*75			*76			*77			*78			*79			*80			*81			*82			*83			*84			*85			
		X1	Y1	Z1	X2	Y2	Z2	X3	Y3	Z3	X4	Y4	Z4	X5	Y5	Z5	X6	Y6	Z6	X7	Y7	Z7	X8	Y8	Z8	X9	Y9	Z9	X10	Y10	Z10	X11	Y11	Z11	X12	Y12	Z12	X13	Y13	Z13	X14	Y14	Z14	X15	Y15	Z15	X16	Y16	Z16	X17	Y17	Z17	X18	Y18	Z18	X19	Y19	Z19	X20	Y20	Z20	X21	Y21	Z21	X22	Y22	Z22	X23	Y23	Z23	X24	Y24	Z24	X25	Y25	Z25	X26	Y26	Z26	X27	Y27	Z27	X28	Y28	Z28	X29	Y29	Z29	X30	Y30	Z30	X31	Y31	Z31	X32	Y32	Z32	X33	Y33	Z33	X34	Y34	Z34	X35	Y35	Z35	X36	Y36	Z36	X37	Y37	Z37	X38	Y38	Z38	X39	Y39	Z39	X40	Y40	Z40	X41	Y41	Z41	X42	Y42	Z42	X43	Y43	Z43	X44	Y44	Z44	X45	Y45	Z45	X46	Y46	Z46	X47	Y47	Z47	X48	Y48	Z48	X49	Y49	Z49	X50	Y50	Z50	X51	Y51	Z51	X52	Y52	Z52	X53	Y53	Z53	X54	Y54	Z54	X55	Y55	Z55	X56	Y56	Z56	X57	Y57	Z57	X58	Y58	Z58	X59	Y59	Z59	X60	Y60	Z60	X61	Y61	Z61	X62	Y62	Z62	X63	Y63	Z63	X64	Y64	Z64	X65	Y65	Z65	X66	Y66	Z66	X67	Y67	Z67	X68	Y68	Z68	X69	Y69	Z69	X70	Y70	Z70	X71	Y71	Z71	X72	Y72	Z72	X73	Y73	Z73	X74	Y74	Z74	X75	Y75	Z75	X76	Y76	Z76	X77	Y77	Z77	X78	Y78	Z78	X79	Y79	Z79	X80	Y80	Z80	X81	Y81	Z81	X82	Y82	Z82	X83	Y83	Z83	X84	Y84	Z84	X85	Y85	Z85	X86	Y86	Z86	

87	0.86	1634.380249023438	1062.13720703125	-216.6851043701169	1651.937133789062	1142.75390625	-321.4385986328122	1759.511108398438	1086.877319335938	-313.7800292968747	1626.007568359375	912.0246582031251	-305.9791259765622	1798.729736328125	970.8883666992189	-317.6428833007809	1729.437133789062	768.6682128906251	-211.8636779785153	1604.413818359375	808.5401611328126	-252.3478851318357	1600.980346679688	814.7897338867189	-341.3554992675778	1713.81201171875	774.2777709960939	-408.0688476562497	1681.44677734375	814.6940917968751	-419.4204101562497	1683.500122070312	820.8211669921876	-190.4098205566403	1822.143310546875	515.0280151367189	-243.8222961425778	1793.273315429688	548.5010375976564	-190.1345214843747	1819.164672851562	451.9016723632814	-208.472732543945	1774.740112304688	464.6035461425782	-149.4949188232419	1806.174682617188	407.4914550781251	-203.0919342041012	1853.712768554688	429.7899475097657	-246.32698059082	1815.852172851562	385.5068359375001	-207.6951141357418	1814.060913085938	372.8620910644532	-304.0539550781247	1858.096435546875	369.3349914550782	-242.6223144531247	1878.387451171875	300.3393554687501	-229.1518402099606	1859.113891601562	247.016571044922	-194.1984405517575	1896.75	208.7078552246095	-234.3981933593747	1851.195434570312	192.1772308349611	-166.1004028320309	1904.266235351562	73.47470855712902	-217.6582183837887	1867.742553710938	40.08715057373058	-263.8334655761715	2013.036254882812	101.8986129760743	-238.6710662841793	2006.755737304688	72.21685791015638	-199.2999420166012	1624.578491210938	552.4384155273439	-437.8382873535153	1646.911010742188	496.9193420410157	-406.7448730468747	1590.767700195312	462.1701049804689	-418.4871826171872	1591.778442382812	500.2798767089845	-466.4516296386716	1562.977416992188	402.1033325195314	-407.815979003906	1618.302368164062	394.7538146972657	-374.1030273437497	1544.568725585938	377.5266723632814	-408.1029663085935	1557.654052734375	372.0128173828126	-306.0207214355466	1589.491577148438	349.4294433593751	-369.1316833496091	1545.8095703125	251.5122833251954	-379.130920410156	1486.0263671875	221.9335937500001	-401.9325866699216	1513.189086914062	163.2851104736329	-366.8382263183591	1449.173706054688	178.7538604736329	-424.155578613281	1441.624633789062	75.37530517578134	-372.3853454589841	1397.354614257812	75.14462280273446	-335.3589782714841	1555.423950195312	31.41275405883799	-340.1918945312497	1526.576293945312	12.51814651489267	-387.544494628906	nan	nan	nan	nan	nan	nan	nan	nan	nan	nan	nan	nan	nan	nan	nan	nan	nan	nan	nan	nan	nan	nan	nan	nan	nan	nan	nan	nan	nan	nan	nan	nan	nan	nan	nan	nan	nan	nan	nan	nan	nan	nan	nan	nan	nan	nan	nan	nan	nan	nan	nan	nan	nan	nan	nan	nan	nan	nan	nan	nan	nan	nan	nan	nan	nan	nan	nan	nan	nan	nan	nan	nan	nan	nan	nan	nan	nan	nan	nan	nan	nan	nan	nan	nan	nan	nan	nan	nan	nan	nan	nan	nan	nan	nan	nan	nan	nan	nan	nan	nan	nan	nan	nan	nan	nan	nan	nan	nan	nan	nan	nan	nan	nan	nan	nan	nan	nan	nan	nan	nan	nan	nan	nan	
88	0.87	1649.394409179688	1059.421997070312	-216.2811584472653	1666.681518554688	1140.024291992188	-321.2944030761716	1774.453735351562	1084.069213867188	-313.5087280273434	1640.494506835938	909.3489990234376	-304.8752136230466	1813.117553710938	967.9464111328126	-317.8044128417965	1744.834350585938	765.6907348632814	-211.9808959960934	1619.479370117188	805.7477416992189	-250.9220275878903	1615.081909179688	812.2481689453126	-339.8722839355466	1727.206420898438	771.8273925781251	-408.0791625976559	1694.660522460938	812.1619873046876	-418.9308776855466	1698.89892578125	817.7753906250001	-189.8443908691403	1836.255737304688	511.9949951171876	-245.3188781738278	1808.2421875	545.4453735351564	-191.1360931396481	1833.875	448.7996520996095	-209.889984130859	1790.288208007812	461.3052062988282	-150.293548583984	1821.13427734375	404.8219604492189	-204.2442779541012	1867.957275390625	427.9867248535157	-247.8773193359372	1831.165649414062	383.252410888672	-208.8730316162106	1829.426513671875	370.5657043457032	-305.1542968749997	1874.146118164062	368.5516357421876	-243.6953582763668	1897.270141601562	300.9445190429689	-230.0041503906247	1880.496948242188	246.6106872558595	-195.3964080810543	1920.165283203125	210.1239624023439	-235.4517669677731	1874.946655273438	191.4512023925782	-167.512542724609	1934.239990234375	75.16354370117199	-219.2841491699215	1899.459350585938	40.54455566406261	-265.9338073730465	2042.26220703125	108.961036682129	-239.5756530761715	2037.26806640625	78.53230285644544	-200.492279052734	1634.600830078125	551.3398437500001	-437.7917785644528	1656.29443359375	495.3397521972657	-407.2131042480466	1599.465942382812	461.6034545898439	-418.5758361816403	1600.747802734375	499.8032226562501	-466.4175109863278	1570.836059570312	401.7954406738282	-407.918762207031	1626.103149414062	393.2664184570314	-374.483215332031	1552.031860351562	377.5101318359376	-408.1772460937497	1565.262817382812	371.4774780273439	-306.1363525390622	1596.406494140625	348.4414367675782	-369.377990722656	1550.667846679688	251.2988891601563	-379.3559265136716	1490.265014648438	223.0516815185548	-402.1895751953122	1516.140625	163.738754272461	-367.1364135742185	1452.53076171875	180.6674957275391	-424.514709472656	1442.764038085938	77.24385833740243	-372.7608337402341	1398.526611328125	78.0459747314454	-335.7755432128903	1555.648193359375	31.30698013305674	-340.3070678710935	1526.491577148438	12.49913501739511	-387.5409851074216	nan	nan	nan	nan	nan	nan	nan	nan	nan	nan	nan	nan	nan	nan	nan	nan	nan	nan	nan	nan	nan	nan	nan	nan	nan	nan	nan	nan	nan	nan	nan	nan	nan	nan	nan	nan	nan	nan	nan	nan	nan	nan	nan	nan	nan	nan	nan	nan	nan	nan	nan	nan	nan	nan	nan	nan	nan	nan	nan	nan	nan	nan	nan	nan	nan	nan	nan	nan	nan	nan	nan	nan	nan	nan	nan	nan	nan	nan	nan	nan	nan	nan	nan	nan	nan	nan	nan	nan	nan	nan	nan	nan	nan	nan	nan	nan	nan	nan	nan	nan	nan	nan	nan	nan	nan	nan	nan	nan	nan	nan	nan	nan	nan	nan	nan	nan	nan	nan	nan	nan	nan	nan	nan	
89	0.88	1664.56787109375	1056.69482421875	-215.7803955078122	1681.548217773438	1137.288940429688	-321.026672363281	1789.532592773438	1081.306640625	-313.1658020019528	1655.246826171875	906.6431274414064	-303.7873840332028	1827.742309570312	965.0911254882814	-317.8698425292965	1760.485961914062	762.7702026367189	-212.0580902099606	1634.807495117188	802.9808959960939	-249.5219879150387	1629.495727539062	809.6760253906251	-338.4095153808591	1740.94091796875	769.3491821289064	-408.0527954101559	1708.238647460938	809.6217651367189	-418.4214477539059	1714.5263671875	814.7642211914064	-189.2858428955075	1850.94384765625	509.2333068847657	-246.8263244628903	1823.702392578125	542.5997924804689	-192.1717376708981	1849.151611328125	445.9557189941407	-211.3731842041012	1806.33935546875	458.245330810547	-151.1859283447262	1836.524169921875	402.2637329101564	-205.4243011474606	1882.755859375	426.2224121093751	-249.3805541992184	1846.808349609375	381.0027770996095	-210.0678253173825	1845.251831054688	368.4287414550782	-306.3023681640622	1890.338256835938	367.5745849609376	-244.7579345703122	1915.623291015625	301.0404357910157	-230.9118499755856	1900.824951171875	245.9371795654298	-196.7618713378903	1942.183959960938	211.0510406494142	-236.6852874755856	1897.013061523438	190.5026092529298	-169.212005615234	1961.300170898438	76.42745208740246	-221.3021850585934	1928.135986328125	40.98558425903332	-268.5821533203122	2068.64208984375	114.6298370361329	-240.3624725341793	2064.498779296875	83.49890136718763	-201.6589050292965	1645.107421875	550.2308959960939	-437.7106933593747	1666.208374023438	493.7710571289064	-407.727355957031	1608.722900390625	461.009002685547	-418.666320800781	1610.1796875	499.3481750488282	-466.3584899902341	1579.304321289062	401.4560852050782	-408.0417785644528	1634.522705078125	391.7398681640626	-374.9118652343747	1560.119262695312	377.4627380371095	-408.2675170898435	1573.579345703125	370.859832763672	-306.242004394531	1603.9306640625	347.423309326172	-369.6739501953122	1556.021240234375	251.1232910156251	-379.6247253417966	1494.938110351562	224.3241577148438	-402.4327697753903	1519.409912109375	164.2976989746095	-367.4464111328122	1456.276489257812	182.8181915283204	-424.8297424316403	1444.111938476562	79.42535400390634	-373.1523437499997	1399.94091796875	81.37915802001962	-336.2150878906247	1555.95654296875	31.26294326782236	-340.466857910156	1526.357666015625	12.51025581359873	-387.5080566406247	nan	nan	nan	nan	nan	nan	nan	nan	nan	nan	nan	nan	nan	nan	nan	nan	nan	nan	nan	nan	nan	nan	nan	nan	nan	nan	nan	nan	nan	nan	nan	nan	nan	nan	nan	nan	nan	nan	nan	nan	nan	nan	nan	nan	nan	nan	nan	nan	nan	nan	nan	nan	nan	nan	nan	nan	nan	nan	nan	nan	nan	nan	nan	nan	nan	nan	nan	nan	nan	nan	nan	nan	nan	nan	nan	nan	nan	nan	nan	nan	nan	nan	nan	nan	nan	nan	nan	nan	nan	nan	nan	nan	nan	nan	nan	nan	nan	nan	nan	nan	nan	nan	nan	nan	nan	nan	nan	nan	nan	nan	nan	nan	nan	nan	nan	nan	nan	nan	nan	nan	nan	nan	nan	
90	0.89	1679.90625	1053.983520507812	-215.1745910644528	1696.540405273438	1134.577392578125	-320.6257019042966	1804.75	1078.621459960938	-312.7436523437497	1670.27978515625	903.9322509765626	-302.7259216308591	1842.614990234375	962.3564453125001	-317.8285827636715	1776.39404296875	759.9406738281251	-212.0942382812497	1650.402221679688	800.2697143554689	-248.1655426025387	1644.240844726562	807.0986938476564	-336.9867553710935	1755.043701171875	766.8609008789064	-407.9911804199215	1722.213989257812	807.0963134765626	-417.9024047851559	1730.39599609375	811.8186645507814	-188.7333679199216	1866.283325195312	506.8247070312501	-248.27180480957	1839.687744140625	540.0336303710939	-193.1917114257809	1865.067504882812	443.4575500488282	-212.8568115234372	1822.903686523438	455.4952087402345	-152.142425537109	1852.445556640625	399.8786926269532	-206.6102752685543	1898.202514648438	424.5610656738282	-250.767425537109	1862.891845703125	378.8089294433595	-211.2628479003903	1861.644775390625	366.5188293457032	-307.483489990234	1906.780029296875	366.4173889160157	-245.8096008300778	1933.555541992188	300.5610961914064	-231.9089508056637	1920.145874023438	244.9147033691407	-198.2920989990231	1962.807250976562	211.3408355712892	-238.1159515380856	1917.40576171875	189.1935272216798	-171.1734466552731	1985.293579101562	76.95149993896497	-223.6807861328121	1953.500610351562	41.07595825195325	-271.6613159179684	2092.053955078125	118.3740310668947	-241.1813507080074	2088.3251953125	86.61146545410169	-202.9008178710934	1656.162841796875	549.1090087890626	-437.6147155761716	1676.728759765625	492.2124938964845	-408.2971496582028	1618.624633789062	460.3709106445314	-418.7818908691403	1620.1630859375	498.9060668945314	-466.2906799316403	1588.461303710938	401.0665283203126	-408.2112731933591	1643.647705078125	390.1688537597657	-375.4077148437497	1568.913208007812	377.3629455566407	-408.4006042480466	1582.684204101562	370.1418762207032	-306.363098144531	1612.149780273438	346.3557739257814	-370.0407409667966	1561.965087890625	250.9979400634766	-379.9702453613278	1500.12548828125	225.7580718994141	-402.6810607910153	1523.081298828125	164.9860076904298	-367.7965393066403	1460.484497070312	185.2208251953126	-425.1205139160153	1445.732666015625	81.95761108398446	-373.5746459960935	1401.670654296875	85.18526458740243	-336.686828613281	1556.339233398438	31.25489234924326	-340.6490783691403	1526.201293945312	12.57000637054453	-387.4410095214841	nan	nan	nan	nan	nan	nan	nan	nan	nan	nan	nan	nan	nan	nan	nan	nan	nan	nan	nan	nan	nan	nan	nan	nan	nan	nan	nan	nan	nan	nan	nan	nan	nan	nan	nan	nan	nan	nan	nan	nan	nan	nan	nan	nan	nan	nan	nan	nan	nan	nan	nan	nan	nan	nan	nan	nan	nan	nan	nan	nan	nan	nan	nan	nan	nan	nan	nan	nan	nan	nan	nan	nan	nan	nan	nan	nan	nan	nan	nan	nan	nan	nan	nan	nan	nan	nan	nan	nan	nan	nan	nan	nan	nan	nan	nan	nan	nan	nan	nan	nan	nan	nan	nan	nan	nan	nan	nan	nan	nan	nan	nan	nan	nan	nan	nan	nan	nan	nan	nan	nan	nan	nan	nan	
